#define percent_width 14
#define percent_height 25
static unsigned char percent_bits[] = {
   0x00, 0x00, 0x00, 0x00, 0x00, 0x00, 0x00, 0x00, 0x00, 0x00, 0x1c, 0x02,
   0x22, 0x02, 0x22, 0x01, 0x22, 0x01, 0xa2, 0x00, 0x9c, 0x00, 0x40, 0x0e,
   0x40, 0x11, 0x20, 0x11, 0x20, 0x11, 0x10, 0x11, 0x10, 0x0e, 0x00, 0x00,
   0x00, 0x00, 0x00, 0x00, 0x00, 0x00, 0x00, 0x00, 0x00, 0x00, 0x00, 0x00,
   0x00, 0x00 };
